<svg width="40" height="26" viewBox="0 0 40 26" fill="none" xmlns="http://www.w3.org/2000/svg">
<path d="M33.5099 1.13721L33.5085 1.13746C27.7293 2.32172 19.3791 7.49824 10.6073 15.4232L10.607 15.4234C8.85663 17.0024 6.59145 19.2602 4.7632 21.1949C3.84914 22.1622 3.04851 23.0442 2.47828 23.7169C2.21119 24.032 1.99915 24.296 1.8507 24.4985C2.25204 24.5339 2.924 24.5483 4.00554 24.5483H6.60457L7.16805 23.9577L7.17236 23.9534C7.55316 23.5759 8.47749 22.5539 9.24925 21.6747L9.25077 21.6729L9.25234 21.6712C10.8179 19.9255 12.0061 18.629 12.8353 17.7677C13.249 17.3379 13.5789 17.0106 13.8243 16.7885C13.946 16.6784 14.0553 16.5865 14.1487 16.5197C14.1949 16.4865 14.2466 16.4528 14.3004 16.4257C14.3422 16.4046 14.4383 16.3592 14.559 16.3592C14.6734 16.3592 14.7656 16.3971 14.8223 16.4263C14.8829 16.4575 14.9355 16.496 14.9785 16.5317C15.0644 16.6032 15.1474 16.6939 15.2231 16.7881C15.3761 16.9787 15.5354 17.2295 15.6698 17.4961C15.9146 17.9815 16.7331 19.5787 17.4871 21.0412C18.2415 22.5048 18.9801 23.9695 19.1455 24.3039L19.1469 24.3068L19.1483 24.3097L19.3094 24.648L26.394 24.7043H26.3943C30.246 24.7336 32.3158 24.7331 33.6089 24.6278C34.2496 24.5756 34.6817 24.4988 35.0344 24.3935C35.385 24.2889 35.6742 24.1513 36.0316 23.9576L36.0348 23.956C36.3487 23.789 36.7488 23.4323 37.1105 22.9973C37.4722 22.5623 37.7489 22.1052 37.856 21.771L37.8569 21.7678C38.1426 20.8997 38.3323 19.9995 38.415 19.1863C38.4985 18.366 38.47 17.6646 38.3414 17.1806L38.3411 17.1795C38.2567 16.8577 38.1403 16.3429 38.074 16.0275L38.0716 16.0167L38.0699 16.0057C38.067 15.9871 38.0498 15.9253 37.9986 15.8129C37.9506 15.7076 37.8834 15.5803 37.7993 15.438C37.6325 15.1549 37.4114 14.8314 37.178 14.5349L36.0095 13.1194L36.8175 12.4145C36.8181 12.4139 36.8187 12.4134 36.8192 12.4129C37.2444 12.0324 37.6296 11.2597 37.8612 10.2782C38.0894 9.31095 38.1499 8.21515 37.989 7.25649C37.9334 6.93624 37.8578 6.58165 37.7806 6.27281C37.7006 5.95346 37.6264 5.7143 37.5784 5.6069L37.5764 5.60222L37.5743 5.59748C37.4079 5.20157 37.0957 4.72203 36.7404 4.29715C36.379 3.86484 36.0188 3.54366 35.7773 3.41807C35.3262 3.18806 35.0277 3.02642 34.8345 2.8851C34.7326 2.81051 34.6421 2.72888 34.5694 2.62952C34.4935 2.52559 34.4527 2.42327 34.4262 2.32896C34.3881 2.19214 34.405 2.03827 34.494 1.90655C34.5691 1.79535 34.6712 1.7363 34.7376 1.70522C34.8694 1.64369 35.0341 1.61412 35.1918 1.59509C35.5244 1.55499 36.0365 1.54077 36.7477 1.54077C37.8502 1.54077 39.0246 1.77053 39.0246 1.70511C39.0246 1.63969 35.889 0.642497 33.5099 1.13721ZM28.9858 15.6183H28.9861C31.05 15.6474 32.2014 15.6669 32.8724 15.7247C33.2067 15.7535 33.4596 15.7942 33.6592 15.8665C33.8824 15.9472 34.0224 16.061 34.1396 16.1927C34.4841 16.576 34.6168 17.1335 34.6049 17.6442C34.5933 18.1577 34.4338 18.7151 34.084 19.1226L33.5641 19.7669H27.8001C27.2812 19.7669 26.8087 19.768 26.3783 19.769C25.5226 19.771 24.8337 19.7725 24.2778 19.7644C23.4502 19.7523 22.8699 19.7188 22.4456 19.6187C21.9868 19.5104 21.6891 19.3193 21.4444 19.0077C21.3337 18.8667 21.2388 18.7076 21.147 18.5449C21.1121 18.4832 21.0781 18.4218 21.0431 18.3587C20.9805 18.2456 20.9148 18.1269 20.8352 17.9903C20.1232 16.7682 19.5815 15.8359 19.1855 15.1176C18.7923 14.4044 18.5292 13.8785 18.386 13.4762C18.2446 13.0789 18.1878 12.7157 18.3278 12.3814C18.4591 12.0679 18.7333 11.8717 18.9431 11.7219L18.9484 11.7181L18.9539 11.7144C19.1893 11.5569 19.5129 11.2825 19.6788 11.121L19.6814 11.1185L19.684 11.116C20.2828 10.552 21.2079 9.74638 22.0142 9.07331C22.4178 8.73647 22.795 8.42998 23.0896 8.20159C23.2364 8.08776 23.3664 7.99049 23.4705 7.91777C23.5223 7.88163 23.572 7.84855 23.6166 7.82163C23.6488 7.80228 23.7113 7.76542 23.7819 7.74278C23.8706 7.71383 23.9834 7.70347 24.0566 7.6973C24.1554 7.68895 24.2807 7.68217 24.4257 7.67661C24.7168 7.66549 25.1045 7.65857 25.5537 7.65522C26.4534 7.64847 27.6121 7.65583 28.7652 7.67291C29.9184 7.69002 31.0689 7.71688 31.9517 7.74933C32.3929 7.76553 32.7703 7.78325 33.049 7.80205C33.1878 7.81142 33.3071 7.82134 33.3994 7.83208C33.4448 7.8374 33.4896 7.84354 33.5294 7.85096L33.5309 7.85126C33.5559 7.85594 33.6272 7.86921 33.6962 7.90325C34.4353 8.26744 34.6311 9.19817 34.5086 10.0709C34.4658 10.3772 34.412 10.735 34.1943 11.0233C33.961 11.3328 33.6033 11.4897 33.1436 11.5836C32.685 11.6772 32.0481 11.7226 31.1661 11.7464C30.2783 11.7703 29.1135 11.7727 27.5871 11.7727C26.1374 11.7727 24.8158 11.7776 23.8531 11.7873C23.4728 11.7912 23.1498 11.7957 22.8975 11.8011C22.9146 11.8378 22.9325 11.8762 22.9512 11.9162C23.1457 12.3307 23.4224 12.8974 23.7331 13.5198L23.7332 13.5201L24.7606 15.5633L28.9858 15.6183Z" fill="#0C9E98"/>
<path d="M12.9147 3.59463C12.7674 3.3321 12.6414 3.11257 12.5378 2.9374C12.5276 2.95589 12.5172 2.9747 12.5068 2.99378C12.3027 3.42301 10.4132 7.10495 8.29404 11.2239C7.23633 13.2797 6.27843 15.1598 5.58302 16.5421C6.49451 15.5929 7.70295 14.3731 8.69618 13.3859L8.69778 13.3843L8.69941 13.3827C8.88531 13.2017 9.33086 12.7895 9.69651 12.4728C10.0472 12.1504 10.4028 11.8192 10.5066 11.7175C10.5595 11.6596 10.6542 11.5708 10.7551 11.4779C10.8811 11.3619 11.0501 11.2095 11.2498 11.032C11.6487 10.6772 12.174 10.2183 12.7318 9.73994C13.2161 9.30996 13.6861 8.89543 14.0748 8.55266C14.5749 8.11159 14.9404 7.78925 15.0285 7.70539L15.0307 7.70329L15.033 7.7012C15.0527 7.68295 15.0678 7.66846 15.0794 7.65711C15.0678 7.62345 15.0471 7.57189 15.0109 7.49518C14.95 7.36646 14.8604 7.19754 14.7328 6.9624L14.7316 6.96022L14.7304 6.95801C13.969 5.51635 13.3524 4.37463 12.9147 3.59463Z" fill="#0C9E98"/>
<path d="M1.48883 24.4405L1.48828 24.4402M33.5099 1.13721L33.5085 1.13746C27.7293 2.32172 19.3791 7.49824 10.6073 15.4232L10.607 15.4234C8.85663 17.0024 6.59145 19.2602 4.7632 21.1949C3.84914 22.1622 3.04851 23.0442 2.47828 23.7169C2.21119 24.032 1.99915 24.296 1.8507 24.4985C2.25204 24.5339 2.924 24.5483 4.00554 24.5483H6.60457L7.16805 23.9577L7.17236 23.9534C7.55316 23.5759 8.47749 22.5539 9.24925 21.6747L9.25077 21.6729L9.25234 21.6712C10.8179 19.9255 12.0061 18.629 12.8353 17.7677C13.249 17.3379 13.5789 17.0106 13.8243 16.7885C13.946 16.6784 14.0553 16.5865 14.1487 16.5197C14.1949 16.4865 14.2466 16.4528 14.3004 16.4257C14.3422 16.4046 14.4383 16.3592 14.559 16.3592C14.6734 16.3592 14.7656 16.3971 14.8223 16.4263C14.8829 16.4575 14.9355 16.496 14.9785 16.5317C15.0644 16.6032 15.1474 16.6939 15.2231 16.7881C15.3761 16.9787 15.5354 17.2295 15.6698 17.4961C15.9146 17.9815 16.7331 19.5787 17.4871 21.0412C18.2415 22.5048 18.9801 23.9695 19.1455 24.3039L19.1469 24.3068L19.1483 24.3097L19.3094 24.648L26.394 24.7043H26.3943C30.246 24.7336 32.3158 24.7331 33.6089 24.6278C34.2496 24.5756 34.6817 24.4988 35.0344 24.3935C35.385 24.2889 35.6742 24.1513 36.0316 23.9576L36.0348 23.956C36.3487 23.789 36.7488 23.4323 37.1105 22.9973C37.4722 22.5623 37.7489 22.1052 37.856 21.771L37.8569 21.7678C38.1426 20.8997 38.3323 19.9995 38.415 19.1863C38.4985 18.366 38.47 17.6646 38.3414 17.1806L38.3411 17.1795C38.2567 16.8577 38.1403 16.3429 38.074 16.0275L38.0716 16.0167L38.0699 16.0057C38.067 15.9871 38.0498 15.9253 37.9986 15.8129C37.9506 15.7076 37.8834 15.5803 37.7993 15.438C37.6325 15.1549 37.4114 14.8314 37.178 14.5349L36.0095 13.1194L36.8175 12.4145C36.8181 12.4139 36.8187 12.4134 36.8192 12.4129C37.2444 12.0324 37.6296 11.2597 37.8612 10.2782C38.0894 9.31095 38.1499 8.21515 37.989 7.25649C37.9334 6.93624 37.8578 6.58165 37.7806 6.27281C37.7006 5.95346 37.6264 5.7143 37.5784 5.6069L37.5764 5.60222L37.5743 5.59747C37.4079 5.20157 37.0957 4.72203 36.7404 4.29715C36.379 3.86484 36.0188 3.54366 35.7773 3.41807C35.3262 3.18806 35.0277 3.02642 34.8345 2.8851C34.7326 2.81051 34.6421 2.72888 34.5694 2.62952C34.4935 2.52559 34.4527 2.42327 34.4262 2.32896C34.3881 2.19214 34.405 2.03827 34.494 1.90655C34.5691 1.79535 34.6712 1.7363 34.7376 1.70522C34.8694 1.64369 35.0341 1.61412 35.1918 1.59509C35.5244 1.55499 36.0365 1.54077 36.7477 1.54077C37.8502 1.54077 39.0246 1.77053 39.0246 1.70511C39.0246 1.63969 35.889 0.642497 33.5099 1.13721ZM28.9858 15.6183H28.9861C31.05 15.6474 32.2014 15.6669 32.8724 15.7247C33.2067 15.7535 33.4596 15.7942 33.6592 15.8665C33.8824 15.9472 34.0224 16.061 34.1396 16.1927C34.4841 16.576 34.6168 17.1335 34.6049 17.6442C34.5933 18.1577 34.4338 18.7151 34.084 19.1226L33.5641 19.7669H27.8001C27.2812 19.7669 26.8087 19.768 26.3783 19.769C25.5226 19.771 24.8337 19.7725 24.2778 19.7644C23.4502 19.7523 22.8699 19.7188 22.4456 19.6187C21.9868 19.5104 21.6891 19.3193 21.4444 19.0077C21.3337 18.8667 21.2388 18.7076 21.147 18.5449C21.1121 18.4832 21.0781 18.4218 21.0431 18.3587C20.9805 18.2456 20.9148 18.1269 20.8352 17.9903C20.1232 16.7682 19.5815 15.8359 19.1855 15.1176C18.7923 14.4044 18.5292 13.8785 18.386 13.4762C18.2446 13.0789 18.1878 12.7157 18.3278 12.3814C18.4591 12.0679 18.7333 11.8717 18.9431 11.7219L18.9484 11.7181L18.9539 11.7144C19.1893 11.5569 19.5129 11.2825 19.6788 11.121L19.6814 11.1185L19.684 11.116C20.2828 10.552 21.2079 9.74638 22.0142 9.07331C22.4178 8.73647 22.795 8.42998 23.0896 8.20159C23.2364 8.08776 23.3664 7.99049 23.4705 7.91777C23.5223 7.88163 23.572 7.84855 23.6166 7.82163C23.6488 7.80228 23.7113 7.76542 23.782 7.74278C23.8706 7.71383 23.9834 7.70347 24.0566 7.6973C24.1554 7.68895 24.2807 7.68217 24.4257 7.67661C24.7168 7.66549 25.1045 7.65857 25.5537 7.65522C26.4534 7.64847 27.6121 7.65583 28.7652 7.67291C29.9184 7.69002 31.0689 7.71688 31.9517 7.74933C32.3929 7.76553 32.7703 7.78325 33.049 7.80205C33.1878 7.81142 33.3071 7.82134 33.3994 7.83208C33.4448 7.8374 33.4896 7.84354 33.5294 7.85096L33.5309 7.85126C33.5559 7.85594 33.6272 7.86921 33.6962 7.90325C34.4353 8.26744 34.6311 9.19817 34.5086 10.0709C34.4658 10.3772 34.412 10.735 34.1943 11.0233C33.961 11.3328 33.6033 11.4897 33.1436 11.5836C32.685 11.6772 32.0481 11.7226 31.1661 11.7464C30.2783 11.7703 29.1135 11.7727 27.5871 11.7727C26.1374 11.7727 24.8158 11.7776 23.8531 11.7873C23.4728 11.7912 23.1498 11.7957 22.8975 11.8011C22.9146 11.8378 22.9325 11.8762 22.9512 11.9162C23.1457 12.3307 23.4224 12.8974 23.7331 13.5198L23.7332 13.5201L24.7606 15.5633L28.9858 15.6183ZM12.9147 3.59463C12.7674 3.3321 12.6414 3.11257 12.5378 2.9374C12.5276 2.95589 12.5172 2.9747 12.5068 2.99378C12.3027 3.42301 10.4132 7.10495 8.29404 11.2239C7.23633 13.2797 6.27843 15.1598 5.58302 16.5421C6.49451 15.5929 7.70295 14.3731 8.69618 13.3859L8.69778 13.3843L8.69941 13.3827C8.88531 13.2017 9.33086 12.7895 9.69651 12.4728C10.0472 12.1504 10.4028 11.8192 10.5066 11.7175C10.5595 11.6596 10.6542 11.5708 10.7551 11.4779C10.8811 11.3619 11.0501 11.2095 11.2498 11.032C11.6487 10.6772 12.174 10.2183 12.7318 9.73994C13.2161 9.30996 13.6861 8.89543 14.0748 8.55266C14.5749 8.11159 14.9404 7.78925 15.0285 7.70539L15.0307 7.70329L15.033 7.7012C15.0527 7.68295 15.0678 7.66846 15.0794 7.65711C15.0678 7.62345 15.0471 7.57189 15.0109 7.49518C14.95 7.36645 14.8604 7.19754 14.7328 6.9624L14.7316 6.96022L14.7304 6.95801C13.969 5.51635 13.3524 4.37463 12.9147 3.59463Z" stroke="#0C9E98"/>
</svg>
